<svg width="32" height="32" viewBox="0 0 32 32" fill="none" xmlns="http://www.w3.org/2000/svg">
<path d="M20.7081 19.0347H19.6241C19.3268 19.0347 19.0548 19.2027 18.9228 19.468L17.9214 21.4707C17.7774 21.76 17.3641 21.76 17.2201 21.4707L14.7708 16.5707C14.6281 16.2867 14.2254 16.28 14.0748 16.56L12.9601 18.6227C12.8228 18.876 12.5574 19.0347 12.2694 19.0347H11.2921" stroke="white" stroke-width="2" stroke-linecap="round" stroke-linejoin="round"/>
<path d="M6.55874 16H5.33474C3.62541 16 2.35741 17.5867 2.73341 19.2533L3.63608 23.2533C3.91074 24.4693 4.99074 25.3333 6.23741 25.3333H7.83208C8.26008 25.3333 8.57608 24.9373 8.48274 24.52L6.76008 16.892C5.42274 10.968 9.92674 5.33333 16.0001 5.33333V5.33333V5.33333C22.0734 5.33333 26.5774 10.968 25.2401 16.892L23.5187 24.52C23.4241 24.9373 23.7414 25.3333 24.1681 25.3333H25.7627C27.0094 25.3333 28.0894 24.4693 28.3641 23.2533L29.2667 19.2533C29.6427 17.5867 28.3747 16 26.6654 16H25.4414" stroke="#04D361" stroke-width="2" stroke-linecap="round" stroke-linejoin="round"/>
</svg>
